# File created by Blade
# Date/Time:  Mon Nov 18 17:26:10 2013
# Frame Rate: 100.000 fps
#------------------------------------------------------
:FULLY-SPECIFIED
:DEGREES
216
root -35.911643 -2.766779 38.550266 11.527066 -3.696376 15.141304
Spine 22.142745 -3.895104 2.776476
Spine1 8.072765 -1.439116 5.723417
Spine2 -22.754156 -0.734619 -0.015339
NeckDummy -0.064703 0.213451 0.957732 13.377678 -0.811775 0.382403
Neck 1.053479 -15.476300 39.574729
Head -0.456583 0.037466 0.342732 -6.231813 -5.478944 -2.225274
LeftShoulderDummy -0.117974 0.238364 0.982763 13.371141 -1.004121 0.648057
LeftShoulder 4.492307 -8.467824 14.112970
LeftArm 19.903994 37.696885 21.867432
LeftForeArm 47.555054
LeftForeArmRoll 22.211911
LeftHand -33.698690 -23.366846 13.254214
LeftHandThumb1 13.517684 4.257177
LeftHandIndex1 0.363704 41.554869
LeftHandPinky1 2.243038 62.110962
RightShoulderDummy -0.048616 0.218947 0.924164 13.348403 0.784246 -0.315450
RightShoulder 5.832667 4.718323 6.755353
RightArm 11.691902 67.697097 47.368589
RightForeArm 100.614595
RightForeArmRoll 21.920585
RightHand -45.963399 -25.282107 8.969071
RightHandThumb1 16.351988 7.711363
RightHandIndex1 3.378609 34.132282
RightHandPinky1 9.539656 62.255963
LeftUpLeg -4.821896 21.703620 -47.160462
LeftLeg 49.223707
LeftFoot 0.003300 -0.647995 -1.576662 -19.745252 17.083342 -6.440198
LeftToeBase 0.994559
RightUpLeg -6.343856 20.391759 -33.440290
RightLeg 45.647627
RightFoot -0.465621 0.869117 0.611902 -20.360967 8.321038 -12.822360
RightToeBase -3.259289
217
root -35.836305 -2.752746 38.509382 11.651391 -3.850564 14.950656
Spine 22.199421 -3.937608 2.826093
Spine1 8.095728 -1.455921 5.833660
Spine2 -22.764025 -0.685280 0.029328
NeckDummy -0.062558 0.211900 0.957739 13.368514 -0.843182 0.454001
Neck 1.215793 -15.664012 39.707218
Head -0.467965 0.037090 0.346900 -6.328121 -5.418224 -2.397573
LeftShoulderDummy -0.116504 0.238335 0.983389 13.361505 -1.036312 0.716120
LeftShoulder 4.433141 -8.420439 13.945233
LeftArm 20.110626 37.496360 21.965435
LeftForeArm 47.427198
LeftForeArmRoll 22.560657
LeftHand -33.635547 -23.463211 13.196827
LeftHandThumb1 13.278245 4.845199
LeftHandIndex1 0.369646 41.674358
LeftHandPinky1 2.174767 62.154547
RightShoulderDummy -0.046595 0.216221 0.923235 13.338388 0.817378 -0.387693
RightShoulder 5.762635 4.913884 6.590930
RightArm 12.191126 67.839660 48.021220
RightForeArm 100.600931
RightForeArmRoll 21.995759
RightHand -46.016047 -25.342462 8.839654
RightHandThumb1 16.604958 7.914164
RightHandIndex1 3.459850 34.027910
RightHandPinky1 9.508394 62.229432
LeftUpLeg -4.788047 21.778932 -47.341756
LeftLeg 49.354266
LeftFoot -0.006166 -0.643827 -1.577338 -19.611939 17.172229 -6.433886
LeftToeBase 1.016779
RightUpLeg -6.099419 20.380553 -33.821975
RightLeg 45.844096
RightFoot -0.453716 0.891489 0.602600 -20.707154 8.350098 -12.647478
RightToeBase -3.307259
218
root -35.776844 -2.740947 38.470294 11.773366 -4.022816 14.803690
Spine 22.273146 -3.974954 2.850790
Spine1 8.112961 -1.449728 5.890795
Spine2 -22.796966 -0.634277 0.012339
NeckDummy -0.061421 0.212780 0.960244 13.366568 -0.825213 0.365309
Neck 1.139635 -15.626967 39.665175
Head -0.466494 0.032257 0.344688 -6.317395 -5.442534 -2.354160
LeftShoulderDummy -0.115275 0.237932 0.985385 13.358864 -1.021308 0.647194
LeftShoulder 4.233423 -8.188638 13.869934
LeftArm 20.228658 37.381061 21.948513
LeftForeArm 47.300182
LeftForeArmRoll 22.848799
LeftHand -33.638302 -23.366164 13.271640
LeftHandThumb1 13.125994 4.998606
LeftHandIndex1 0.297011 42.010176
LeftHandPinky1 2.168808 62.258517
RightShoulderDummy -0.045536 0.218905 0.925825 13.336123 0.800321 -0.302141
RightShoulder 5.669384 4.896087 6.361886
RightArm 12.560428 67.936215 48.614697
RightForeArm 100.566081
RightForeArmRoll 22.085121
RightHand -46.087352 -25.445332 8.824247
RightHandThumb1 16.555154 7.968046
RightHandIndex1 3.408620 34.142578
RightHandPinky1 9.462564 62.482464
LeftUpLeg -4.763629 21.876411 -47.548448
LeftLeg 49.463386
LeftFoot -0.008487 -0.639150 -1.580682 -19.435710 17.224334 -6.404356
LeftToeBase 1.063733
RightUpLeg -5.669943 20.353516 -34.199808
RightLeg 46.109654
RightFoot -0.436815 0.902456 0.594895 -20.679425 8.332169 -12.646413
RightToeBase -3.107264
219
root -35.722592 -2.733508 38.433763 11.885336 -4.140668 14.636697
Spine 22.310439 -4.022911 2.886169
Spine1 8.125306 -1.471495 5.968234
Spine2 -22.780294 -0.573445 0.055517
NeckDummy -0.057681 0.210784 0.958050 13.385183 -0.854311 0.465765
Neck 1.252241 -15.773635 39.612339
Head -0.469224 0.032351 0.347158 -6.315901 -5.455909 -2.382913
LeftShoulderDummy -0.110574 0.237100 0.983538 13.376964 -1.043654 0.714647
LeftShoulder 4.145911 -8.144360 13.706937
LeftArm 20.438815 37.196902 22.020796
LeftForeArm 47.157805
LeftForeArmRoll 23.095880
LeftHand -33.587046 -23.371504 13.141389
LeftHandThumb1 12.973775 5.081002
LeftHandIndex1 0.225790 41.586315
LeftHandPinky1 2.169637 62.248454
RightShoulderDummy -0.041502 0.215205 0.922972 13.354150 0.828393 -0.393939
RightShoulder 5.529714 5.148426 6.221266
RightArm 12.993239 68.036630 49.283736
RightForeArm 100.548217
RightForeArmRoll 22.131705
RightHand -46.134113 -25.354068 8.687564
RightHandThumb1 16.374526 7.591493
RightHandIndex1 3.356151 33.786147
RightHandPinky1 9.526341 62.156039
LeftUpLeg -4.751680 21.924935 -47.741616
LeftLeg 49.602808
LeftFoot -0.013039 -0.639428 -1.583342 -19.248147 17.309256 -6.405322
LeftToeBase 1.094649
RightUpLeg -5.228797 20.365717 -34.568301
RightLeg 46.357849
RightFoot -0.431129 0.910219 0.606739 -20.986913 7.977092 -12.804154
RightToeBase -2.978116
